<svg  width="24" height="24" fill="none" xmlns="http://www.w3.org/2000/svg"viewBox="0 0 23.55 27.51">
</defs>
<g>
	<polygon fill="currentColor" points="11.44 14.72 13.62 14.72 12.28 17.32 14.16 17.34 10.28 22.6 11.56 18.74 9.97 18.74 11.44 14.72"/>
	<g fill="currentColor">
		<polygon  fill="currentColor"   opacity="0.5" points=".11 11.55 9.08 8.91 14.91 8.91 23.55 11.11 23.55 12.6 0 12.6 .11 11.55"/>
	</g>
	<g  fill="currentColor" opacity="0.3" >
		<polygon  points="14.66 8.12 14.26 5.12 9.5 5.12 9.08 8.12 14.66 8.12"/>
		<path    d="m15.33,13.12h-6.95l-2,14.39,10.88-.03-1.93-14.36Zm-5.71,5.86l1.64-4.5h2.75l-1.34,2.6,1.96.02-5.05,6.85,1.65-4.97h-1.6Z"/>
	</g>
	<polygon  fill="currentColor"  opacity="0.5" points="9.02 0 15.07 .06 19.86 2.59 19.86 4.02 3.96 4.02 3.96 2.7 9.02 0"/>
</g>
</svg>