<svg viewBox="0 0 28 26"  width="24" height="24" fill="none" xmlns="http://www.w3.org/2000/svg">
	<g>
		<g >
			<polygon  fill="currentColor"  opacity="0.5" points="21.02 5.26 23.54 5.73 21.44 8.43 23.6 8.85 18.02 14.07 20.31 9.91 18.49 9.57 21.02 5.26"/>
		</g>
		<polygon  fill="currentColor"  opacity="0.3" points="24.82 8.5 23.66 9.59 28 13 28 11 24.82 8.5"/>
		<polygon  fill="currentColor"  opacity="0.3" points="23.15 7.19 22.49 8.04 24.81 8.5 23.15 7.19"/>
		<polygon  fill="currentColor"  opacity="0.3" points="20.46 5.07 14 0 7 5.5 7 2 3 2 3 8.64 0 11 0 13 14 2 19.65 6.44 20.46 5.07"/>
		<polygon  fill="currentColor"   points="22.5 10.68 15.74 17.01 19.41 10.34 17.56 10 18.85 7.81 14 4 3 12.64 3 26 12 26 12 18 16 18 16 26 25 26 25 12.64 22.5 10.68"/>
	</g>
</svg>