<svg viewBox="0 0 33.37 23.99" width="24" height="24" fill="none" xmlns="http://www.w3.org/2000/svg">
	<g >
		<path d="m25.23,14.35c-2.22,0-4.4,0-6.63,0,2.2-2.98,5.95-7.93,8.14-10.89,2.2,0,4.39,0,6.63,0-2.16,2.91-5.93,7.89-8.14,10.89Z"  fill="currentColor"  opacity="0.3" />
		<path d="m25.07,3.5c-2.23,3.01-5.92,7.88-8.08,10.81-2.19,0-4.35,0-6.56,0,2.11-2.85,5.87-7.81,8.08-10.81,2.17,0,4.36,0,6.56,0Z"  fill="currentColor"  opacity="0.3" />
		<path d="m18.1,15.25h6.54c-2.19,2.97-4.3,5.81-6.46,8.73h-6.54c2.18-2.94,4.33-5.86,6.46-8.73Z"  fill="currentColor"  opacity="0.3" />
		<path d="m3.35,23.96c2.13-2.88,4.22-5.71,6.38-8.62,2.18,0,4.33,0,6.55,0-2.13,2.88-4.22,5.7-6.38,8.62-2.15,0-4.31,0-6.55,0Z"  fill="currentColor"  opacity="0.3" />
		<path d="m.67,10.35c.35.27.62.62.83,1,.33.61.46,1.26.39,1.95-.05.53-.24,1.02-.52,1.47-.01.02-.01.05-.02.07.02,0,.05.01.07.01.22.02.44.03.66.05.69.07,1.28.36,1.77.83.75.7,1.13,1.57,1.09,2.6,0,.04,0,.09,0,.16.15-.11.3-.18.45-.26L15.89,4.02s-.04-.03-.05-.04c-.73-.72-1.05-1.61-.97-2.66-.88.58-1.81.74-2.79.48-.98-.26-1.71-.87-2.17-1.79-.47.93-1.2,1.54-2.18,1.8-.98.25-1.91.11-2.78-.47,0,.09,0,.16,0,.23,0,.2,0,.4-.03.59-.17.92-.64,1.66-1.4,2.2-.3.22-.64.38-1,.48-.35.1-.71.13-1.08.12-.03,0-.07,0-.11,0,.55.86.74,1.78.47,2.77-.27.98-.87,1.71-1.8,2.17.04.03.07.05.1.07.19.12.39.24.57.37Z"  fill="currentColor" />
	</g>
</svg>